<svg
  class="award-icon"
  width="50px"
  height="83px"
  viewBox="0 0 50 83"
  version="1.1"
  xmlns="http://www.w3.org/2000/svg"
><defs><linearGradient
      x1="-1.11022302e-14%"
      y1="50%"
      x2="100%"
      y2="50%"
      id="linearGradient-1"
    ><stop stop-color="#FDDB4E" offset="0%" /><stop
        stop-color="#F9B426"
        offset="100%"
      /></linearGradient></defs><g
    id="Page-1"
    stroke="none"
    stroke-width="1"
    fill="none"
    fill-rule="evenodd"
  ><g id="award-icon" fill-rule="nonzero"><path
        d="M5,0 L5,22 L16,26.406 L16,0 L5,0 Z M20,0 L20,28.031 L24.938,30 L30.001,27.969 L30.001,0 L20,0 Z M25,33 C11.193,33 0,44.193 0,58 C0,71.807 11.193,83 25,83 C38.807,83 50,71.807 50,58 C50,44.193 38.807,33 25,33 Z M24.9374954,39 L41.8249907,48.75 L41.8249907,68.25 L24.9374954,78 L8.05,68.25 L8.05,48.75 L24.9374954,39 Z M45,0 L45,22 L34,26.375 L34,0 L45,0 Z"
        id="Shape"
        fill="url(#linearGradient-1)"
      /><polygon
        id="Path"
        fill="#F9B426"
        points="25 49 27.777625 54.9336129 34 55.8771613 29.5 60.4857419 30.55525 67 25 63.9336129 19.44475 67 20.5 60.4857419 16 55.8771613 22.2229375 54.9336129 25.0005625 49"
      /></g></g></svg>
